# Blender v3.0.1 OBJ File: ''
# www.blender.org
o SM_Prop_Ladder_1x2_01P_Mesh.011
v -0.100000 0.000000 0.000000
v -0.100000 -0.000000 0.100000
v -0.060760 0.000000 0.000000
v 0.000000 -0.000000 0.100000
v -0.600000 -0.000000 0.050516
v -0.600000 -0.000000 0.100000
v -0.500000 0.000000 0.000000
v -0.500000 -0.000000 0.100000
v -0.100000 0.223570 0.023571
v -0.100000 0.223570 0.076430
v -0.500000 0.223570 0.023571
v -0.500000 0.223570 0.076430
v -0.500000 0.276430 0.023571
v -0.500000 0.276430 0.076430
v -0.100000 0.276430 0.023571
v -0.100000 0.276430 0.076430
v -0.100000 0.473570 0.023571
v -0.100000 0.473570 0.076430
v -0.500000 0.473570 0.023571
v -0.500000 0.473570 0.076430
v -0.500000 0.526430 0.023571
v -0.500000 0.526430 0.076430
v -0.100000 0.526430 0.023571
v -0.100000 0.526430 0.076430
v -0.100000 0.723570 0.023571
v -0.100000 0.723570 0.076430
v -0.500000 0.723570 0.023571
v -0.500000 0.723570 0.076430
v -0.500000 0.776429 0.023571
v -0.500000 0.776429 0.076430
v -0.100000 0.776429 0.023571
v -0.100000 0.776429 0.076430
v -0.100000 0.973570 0.023571
v -0.100000 0.973570 0.076430
v -0.500000 0.973570 0.023571
v -0.500000 0.973570 0.076430
v -0.500000 1.026430 0.023571
v -0.500000 1.026430 0.076430
v -0.100000 1.026430 0.023571
v -0.100000 1.026430 0.076430
v -0.100000 2.000000 0.000000
v -0.100000 2.000000 0.100000
v 0.000000 2.000000 0.000000
v 0.000000 1.974742 0.100000
v -0.600000 2.000000 0.000000
v -0.600000 2.000000 0.100000
v -0.500000 2.000000 0.018452
v -0.500000 2.000000 0.100000
v -0.100000 1.223570 0.023571
v -0.100000 1.223570 0.076430
v -0.500000 1.223570 0.023571
v -0.500000 1.223570 0.076430
v -0.500000 1.276430 0.023571
v -0.500000 1.276430 0.076430
v -0.100000 1.276430 0.023571
v -0.100000 1.276430 0.076430
v -0.100000 1.473570 0.023571
v -0.100000 1.473570 0.076430
v -0.500000 1.473570 0.023571
v -0.500000 1.473570 0.076430
v -0.500000 1.526429 0.042473
v -0.500000 1.526429 0.076430
v -0.100000 1.526429 0.023571
v -0.100000 1.526429 0.076430
v -0.100000 1.723570 0.023571
v -0.100000 1.723570 0.076430
v -0.500000 1.723570 0.023571
v -0.500000 1.723570 0.076430
v -0.500000 1.776429 0.023571
v -0.500000 1.776429 0.076430
v -0.100000 1.776429 0.046065
v -0.100000 1.776429 0.076430
v -0.210601 1.276430 0.023571
v -0.305561 1.276430 0.023571
v -0.254550 1.276429 0.049403
v -0.254481 1.258452 0.023571
v -0.562957 0.000000 0.000000
v -0.600000 0.041574 0.000000
v -0.600000 0.557344 0.000000
v -0.600000 0.728488 0.000000
v -0.500000 0.355617 0.000000
v -0.525406 0.141600 0.000000
v -0.500000 0.130535 0.028463
v -0.572820 0.627143 0.000000
v -0.600000 0.629572 0.021797
v -0.500000 1.411871 0.000000
v -0.500000 1.583288 0.000000
v -0.500000 1.474450 0.010641
v -0.525839 1.475313 0.000000
v -0.500000 1.968189 0.000000
v -0.527934 2.000000 0.000000
v -0.100000 1.760235 0.023571
v -0.167992 1.776429 0.023571
v -0.417040 1.526429 0.023571
v -0.500000 1.503914 0.023571
v -0.266706 0.776429 0.023571
v -0.369517 0.776429 0.023571
v -0.342638 0.776429 0.040775
v -0.333822 0.752746 0.023571
v 0.000000 -0.000000 0.032044
v 0.000000 0.042848 0.000000
v 0.000000 2.000000 0.070283
v -0.046621 2.000000 0.100000
v 0.000000 1.037654 0.100000
v 0.000000 1.273784 0.000000
v 0.000000 1.412224 0.100000
v 0.000000 1.542353 0.000000
v 0.000000 1.093099 0.076520
v 0.000000 1.494068 0.037106
v -0.031320 1.110921 0.100000
v -0.026218 1.481559 0.000000
v 0.000000 0.455340 0.000000
v 0.000000 0.593679 0.000000
v -0.019634 0.477117 0.000000
v 0.000000 0.491167 0.025615
vt 0.047619 0.952377
vt 0.047619 1.000000
vt 0.015259 0.952377
vt 0.000000 0.981308
vt 0.000000 1.000000
vt 0.095489 0.000000
vt 0.095489 0.952380
vt 0.057225 0.227198
vt 0.047877 0.282703
vt 0.047877 0.606563
vt 0.060360 0.705503
vt 0.047877 0.734452
vt 0.047877 0.952379
vt 0.286107 0.952381
vt 0.286107 0.000000
vt 0.328659 0.702119
vt 0.333726 0.672320
vt 0.333726 0.000000
vt 0.320172 0.062159
vt 0.333726 0.169341
vt 0.406528 0.619047
vt 0.406528 0.571428
vt 0.436508 0.619047
vt 0.454147 0.594993
vt 0.454147 0.571428
vt 0.143250 0.265403
vt 0.107735 0.067429
vt 0.143250 0.019798
vt 0.095638 0.000000
vt 0.125614 0.000001
vt 0.482041 0.190475
vt 0.456871 0.190475
vt 0.482041 0.000000
vt 0.456871 0.000000
vt 0.381345 0.571375
vt 0.406516 0.571375
vt 0.381345 0.596546
vt 0.406516 0.596546
vt 0.482042 0.571429
vt 0.456871 0.571429
vt 0.482042 0.380953
vt 0.456871 0.380953
vt 0.526938 0.596600
vt 0.501767 0.596600
vt 0.526938 0.571428
vt 0.501767 0.571428
vt 0.406528 0.000000
vt 0.431700 0.000000
vt 0.406528 0.190476
vt 0.431700 0.190476
vt 0.607897 0.380898
vt 0.582726 0.380898
vt 0.607897 0.190449
vt 0.582726 0.190449
vt 0.431700 0.380951
vt 0.406529 0.380951
vt 0.431700 0.190475
vt 0.406529 0.190475
vt 0.552109 0.596600
vt 0.552109 0.621771
vt 0.526939 0.596600
vt 0.526939 0.621771
vt 0.557555 0.571429
vt 0.532384 0.571429
vt 0.557555 0.380953
vt 0.532384 0.380953
vt 0.406513 0.596546
vt 0.406513 0.621717
vt 0.381344 0.596546
vt 0.381344 0.621717
vt 0.456871 0.190476
vt 0.482040 0.190476
vt 0.456871 0.380953
vt 0.482040 0.380953
vt 0.607895 0.190449
vt 0.582726 0.190449
vt 0.607895 0.000000
vt 0.582726 0.000000
vt 0.507213 0.380951
vt 0.482042 0.380951
vt 0.507213 0.190475
vt 0.482042 0.190475
vt 0.526939 0.596600
vt 0.526939 0.621771
vt 0.501770 0.596600
vt 0.501770 0.621771
vt 0.392639 0.301778
vt 0.381348 0.305838
vt 0.381363 0.269823
vt 0.633067 0.240791
vt 0.607896 0.240791
vt 0.633067 0.215622
vt 0.607896 0.215622
vt 0.532387 0.190476
vt 0.557556 0.190476
vt 0.532387 0.380953
vt 0.557556 0.380953
vt 0.381363 0.318773
vt 0.406532 0.380898
vt 0.381363 0.380899
vt 0.557554 0.190475
vt 0.532383 0.190475
vt 0.557554 0.000000
vt 0.532383 0.000000
vt 0.552109 0.571429
vt 0.552109 0.596600
vt 0.526939 0.571429
vt 0.526939 0.596600
vt 0.456871 0.571429
vt 0.431700 0.571429
vt 0.456871 0.380953
vt 0.431700 0.380953
vt 0.633068 0.215622
vt 0.607897 0.215622
vt 0.633068 0.190453
vt 0.607897 0.190453
vt 0.507210 0.000000
vt 0.532379 0.000000
vt 0.507210 0.190476
vt 0.532379 0.190476
vt 0.582726 0.380954
vt 0.607895 0.380953
vt 0.582726 0.571403
vt 0.607895 0.571402
vt 0.333726 0.952377
vt 0.333726 0.000000
vt 0.381345 0.952377
vt 0.381345 0.000000
vt 0.454148 0.604896
vt 0.476349 0.619048
vt 0.454148 0.619048
vt 0.190869 0.952377
vt 0.190869 0.458267
vt 0.238488 0.952377
vt 0.238488 0.000000
vt 0.213069 0.000000
vt 0.190869 0.012024
vt 0.205783 0.423370
vt 0.190869 0.279892
vt 0.238488 0.952377
vt 0.238488 0.000000
vt 0.262053 0.952377
vt 0.286107 0.932587
vt 0.286107 0.000000
vt 0.286107 0.605484
vt 0.275727 0.652588
vt 0.286107 0.686981
vt 0.605175 0.571402
vt 0.605175 0.619021
vt 0.570858 0.571402
vt 0.557556 0.619021
vt 0.557556 0.580189
vt 0.143250 0.952377
vt 0.143250 0.000000
vt 0.190868 0.952377
vt 0.190868 0.000000
vt 0.532384 0.380951
vt 0.507213 0.380951
vt 0.532384 0.190475
vt 0.507213 0.190475
vt 0.630341 0.571402
vt 0.630341 0.596573
vt 0.605171 0.571402
vt 0.605171 0.596573
vt 0.482042 0.380953
vt 0.494912 0.454548
vt 0.482042 0.571429
vt 0.507213 0.478839
vt 0.507213 0.571429
vt 0.630345 0.621742
vt 0.605174 0.621742
vt 0.630345 0.596573
vt 0.605174 0.596573
vt 0.431702 0.000000
vt 0.456871 0.000000
vt 0.431702 0.190476
vt 0.456871 0.190476
vt 0.557549 0.478826
vt 0.582718 0.571402
vt 0.557549 0.571403
vt 0.456871 0.380951
vt 0.431700 0.380951
vt 0.456871 0.190475
vt 0.431700 0.190475
vt 0.633072 0.265963
vt 0.633072 0.291134
vt 0.618622 0.265963
vt 0.607895 0.274963
vt 0.607895 0.291134
vt 0.381345 0.571376
vt 0.381345 0.380899
vt 0.397515 0.571376
vt 0.406516 0.531871
vt 0.406516 0.380899
vt 0.633072 0.316304
vt 0.633072 0.341475
vt 0.607895 0.316304
vt 0.607895 0.341475
vt 0.557556 0.190476
vt 0.582733 0.190476
vt 0.557556 0.380953
vt 0.582733 0.380953
vt 0.381363 0.150950
vt 0.392090 0.190450
vt 0.381348 0.190298
vt 0.507213 0.190475
vt 0.482042 0.190475
vt 0.507213 0.000000
vt 0.482042 0.000000
vt 0.633072 0.291133
vt 0.633072 0.316304
vt 0.607895 0.291133
vt 0.607895 0.316304
vt 0.532383 0.571429
vt 0.507213 0.571429
vt 0.532383 0.413330
vt 0.507213 0.380953
vt 0.521672 0.380953
vt 0.633072 0.265963
vt 0.607895 0.265963
vt 0.633072 0.251503
vt 0.625351 0.240792
vt 0.607895 0.240792
vt 0.557556 0.000000
vt 0.582733 0.000000
vt 0.557556 0.190476
vt 0.582733 0.190476
vt 0.532383 0.380953
vt 0.557549 0.380954
vt 0.582718 0.380953
vt 0.557549 0.433613
vt 0.507213 0.433620
vt 0.507213 0.454515
vt 0.507213 0.380953
vt 0.566109 0.454505
vt 0.286107 0.952377
vt 0.333726 0.067429
vt 0.095638 0.937232
vt 0.108936 0.952380
vt 0.095490 0.952393
vt 0.130310 0.298640
vt 0.143074 0.299812
vt 0.095638 0.169341
vt 0.143250 0.346900
vt 0.333726 0.753947
vt 0.333726 0.937233
vt 0.324940 0.952381
vt 0.095638 0.753946
vt 0.095551 0.702126
vt 0.107941 0.702530
vt 0.095638 0.672319
vt 0.143250 0.952381
vt 0.633072 0.000000
vt 0.633072 0.190449
vt 0.615601 0.000000
vt 0.607895 0.032373
vt 0.607895 0.190450
vt 0.381363 0.000001
vt 0.406525 0.000000
vt 0.406525 0.190449
vt 0.431700 0.460337
vt 0.406529 0.380953
vt 0.431700 0.380953
vt 0.381363 0.190451
vt 0.406532 0.190450
vt 0.431700 0.571429
vt 0.406529 0.571429
vt 0.431700 0.509295
vt 0.423508 0.496494
vt 0.047877 0.020403
vt 0.047619 0.000021
vt 0.076806 0.000000
vt 0.047619 0.279892
vt 0.017669 0.240921
vt 0.047619 0.012024
vt 0.501767 0.571429
vt 0.501767 0.619048
vt 0.454148 0.571429
vt 0.000000 0.931976
vt 0.012198 0.718491
vt 0.000000 0.735550
vt 0.190869 0.431854
vt 0.000000 0.246872
vt 0.000000 0.217926
vt 0.036438 0.431854
vt 0.000000 0.345810
vt 0.047877 0.216828
vt 0.047671 0.233906
vt 0.000000 0.725189
vt 0.000000 0.669678
vt 0.047619 0.458267
vt 0.033468 0.000000
vt 0.000000 0.000000
vn 0.0000 -1.0000 -0.0000
vn -0.0000 0.0000 -1.0000
vn 1.0000 -0.0000 0.0000
vn -1.0000 0.0000 0.0000
vn 0.0000 1.0000 0.0000
vn 0.0000 -0.0000 1.0000
vn -0.1873 0.5307 -0.8266
vn 0.3816 0.7043 0.5986
vn -0.1719 0.6334 -0.7545
vn 0.1898 0.7968 -0.5736
vn -0.3186 0.7776 -0.5420
vn 0.2776 0.7889 -0.5482
vn -0.6549 -0.5835 -0.4802
vn 0.7264 -0.0862 -0.6819
vn 0.4961 0.4356 -0.7511
vn -0.5959 0.2320 -0.7688
vn 0.7649 0.1372 -0.6294
vn -0.6258 -0.1678 -0.7617
vn 0.3766 -0.0901 -0.9220
vn 0.3806 0.1550 -0.9117
vn 0.4184 0.6306 -0.6537
vn 0.3891 -0.5517 -0.7377
vn 0.5767 -0.0599 0.8147
vn 0.8162 -0.3520 -0.4581
vn 0.6739 0.2881 0.6803
vn 0.7963 0.1005 -0.5965
vn 0.5421 0.4887 -0.6836
vn 0.8212 -0.1383 -0.5536
s 1
f 4/1/1 2/2/1 100/3/1
f 100/3/1 2/2/1 3/4/1
f 3/4/1 2/2/1 1/5/1
f 1/6/2 41/7/2 114/8/2
f 114/8/2 41/7/2 113/9/2
f 113/9/2 41/7/2 105/10/2
f 105/10/2 41/7/2 111/11/2
f 111/11/2 41/7/2 107/12/2
f 41/7/2 43/13/2 107/12/2
f 48/14/3 8/15/3 88/16/3
f 88/16/3 8/15/3 86/17/3
f 7/18/3 83/19/3 8/15/3
f 8/15/3 83/19/3 86/17/3
f 83/19/3 81/20/3 86/17/3
f 7/21/1 8/22/1 77/23/1
f 77/23/1 8/22/1 5/24/1
f 8/22/1 6/25/1 5/24/1
f 79/26/2 82/27/2 78/28/2
f 7/29/2 77/30/2 82/27/2
f 77/30/2 78/28/2 82/27/2
f 9/31/1 10/32/1 11/33/1
f 11/33/1 10/32/1 12/34/1
f 11/35/4 12/36/4 13/37/4
f 13/37/4 12/36/4 14/38/4
f 13/39/5 14/40/5 15/41/5
f 15/41/5 14/40/5 16/42/5
f 15/43/3 16/44/3 9/45/3
f 9/45/3 16/44/3 10/46/3
f 10/47/6 16/48/6 12/49/6
f 12/49/6 16/48/6 14/50/6
f 15/51/2 9/52/2 13/53/2
f 13/53/2 9/52/2 11/54/2
f 17/55/1 18/56/1 19/57/1
f 19/57/1 18/56/1 20/58/1
f 19/59/4 20/60/4 21/61/4
f 21/61/4 20/60/4 22/62/4
f 21/63/5 22/64/5 23/65/5
f 23/65/5 22/64/5 24/66/5
f 23/67/3 24/68/3 17/69/3
f 17/69/3 24/68/3 18/70/3
f 18/71/6 24/72/6 20/73/6
f 20/73/6 24/72/6 22/74/6
f 23/75/2 17/76/2 21/77/2
f 21/77/2 17/76/2 19/78/2
f 25/79/1 26/80/1 27/81/1
f 27/81/1 26/80/1 28/82/1
f 27/83/4 28/84/4 29/85/4
f 29/85/4 28/84/4 30/86/4
f 99/87/7 98/88/7 96/89/7
f 31/90/3 32/91/3 25/92/3
f 25/92/3 32/91/3 26/93/3
f 26/94/6 32/95/6 28/96/6
f 28/96/6 32/95/6 30/97/6
f 97/98/2 27/99/2 29/100/2
f 33/101/1 34/102/1 35/103/1
f 35/103/1 34/102/1 36/104/1
f 35/105/4 36/106/4 37/107/4
f 37/107/4 36/106/4 38/108/4
f 37/109/5 38/110/5 39/111/5
f 39/111/5 38/110/5 40/112/5
f 39/113/3 40/114/3 33/115/3
f 33/115/3 40/114/3 34/116/3
f 34/117/6 40/118/6 36/119/6
f 36/119/6 40/118/6 38/120/6
f 39/121/2 33/122/2 37/123/2
f 37/123/2 33/122/2 35/124/2
f 2/125/4 42/126/4 1/127/4
f 1/127/4 42/126/4 41/128/4
f 102/129/8 103/130/8 44/131/8
f 4/132/6 104/133/6 2/134/6
f 42/135/6 2/134/6 103/136/6
f 103/136/6 2/134/6 44/137/6
f 104/133/6 110/138/6 2/134/6
f 2/134/6 110/138/6 44/137/6
f 110/138/6 106/139/6 44/137/6
f 6/140/4 46/141/4 5/142/4
f 5/142/4 46/141/4 78/143/4
f 45/144/4 80/145/4 46/141/4
f 80/145/4 85/146/4 46/141/4
f 46/141/4 85/146/4 78/143/4
f 85/146/4 79/147/4 78/143/4
f 45/148/5 46/149/5 91/150/5
f 48/151/5 47/152/5 46/149/5
f 46/149/5 47/152/5 91/150/5
f 8/153/6 48/154/6 6/155/6
f 6/155/6 48/154/6 46/156/6
f 49/157/1 50/158/1 51/159/1
f 51/159/1 50/158/1 52/160/1
f 51/161/4 52/162/4 53/163/4
f 53/163/4 52/162/4 54/164/4
f 56/165/5 75/166/5 54/167/5
f 75/166/5 74/168/5 54/167/5
f 53/169/5 54/167/5 74/168/5
f 55/170/3 56/171/3 49/172/3
f 49/172/3 56/171/3 50/173/3
f 50/174/6 56/175/6 52/176/6
f 52/176/6 56/175/6 54/177/6
f 74/178/2 51/179/2 53/180/2
f 57/181/1 58/182/1 59/183/1
f 59/183/1 58/182/1 60/184/1
f 59/185/4 60/186/4 95/187/4
f 95/187/4 60/186/4 61/188/4
f 60/186/4 62/189/4 61/188/4
f 62/190/5 64/191/5 61/192/5
f 61/192/5 64/191/5 94/193/5
f 64/191/5 63/194/5 94/193/5
f 63/195/3 64/196/3 57/197/3
f 57/197/3 64/196/3 58/198/3
f 58/199/6 64/200/6 60/201/6
f 60/201/6 64/200/6 62/202/6
f 94/203/9 95/204/9 61/205/9
f 65/206/1 66/207/1 67/208/1
f 67/208/1 66/207/1 68/209/1
f 67/210/4 68/211/4 69/212/4
f 69/212/4 68/211/4 70/213/4
f 69/214/5 70/215/5 93/216/5
f 72/217/5 71/218/5 70/215/5
f 70/215/5 71/218/5 93/216/5
f 72/219/3 66/220/3 71/221/3
f 71/221/3 66/220/3 92/222/3
f 66/220/3 65/223/3 92/222/3
f 66/224/6 72/225/6 68/226/6
f 68/226/6 72/225/6 70/227/6
f 71/218/10 92/228/10 93/216/10
f 55/229/2 49/230/2 73/231/2
f 73/232/11 76/233/11 75/166/11
f 75/166/5 56/165/5 73/232/5
f 73/232/5 56/165/5 55/234/5
f 49/230/2 51/179/2 76/235/2
f 76/235/2 51/179/2 74/178/2
f 73/231/2 49/230/2 76/235/2
f 75/166/12 76/233/12 74/168/12
f 78/143/13 77/236/13 5/142/13
f 83/19/14 82/237/14 81/20/14
f 90/238/15 91/239/15 47/240/15
f 84/241/16 79/26/16 85/242/16
f 7/18/17 82/237/17 83/19/17
f 82/27/2 79/26/2 81/243/2
f 81/243/2 79/26/2 84/241/2
f 84/241/18 85/242/18 80/244/18
f 87/245/3 90/246/3 48/14/3
f 48/14/3 90/246/3 47/247/3
f 87/248/19 88/249/19 89/250/19
f 48/14/3 88/16/3 87/245/3
f 89/250/20 88/249/20 86/251/20
f 45/252/2 89/250/2 80/244/2
f 81/243/2 84/241/2 86/251/2
f 84/241/2 80/244/2 86/251/2
f 80/244/2 89/250/2 86/251/2
f 89/250/2 45/252/2 87/248/2
f 45/252/2 91/239/2 87/248/2
f 91/239/2 90/238/2 87/248/2
f 65/253/2 67/254/2 92/255/2
f 92/255/2 67/254/2 93/256/2
f 93/256/2 67/254/2 69/257/2
f 63/258/2 57/259/2 94/203/2
f 59/260/2 95/204/2 57/259/2
f 57/259/2 95/204/2 94/203/2
f 96/261/5 32/262/5 31/263/5
f 31/264/2 25/265/2 96/89/2
f 99/87/2 27/99/2 97/98/2
f 29/266/5 30/267/5 97/268/5
f 97/268/5 30/267/5 98/269/5
f 97/98/21 98/88/21 99/87/21
f 99/87/2 25/265/2 27/99/2
f 96/89/2 25/265/2 99/87/2
f 96/261/5 98/269/5 32/262/5
f 32/262/5 98/269/5 30/267/5
f 101/270/22 100/271/22 3/272/22
f 106/273/3 109/274/3 44/275/3
f 41/276/5 42/277/5 43/278/5
f 42/277/5 103/130/5 43/278/5
f 103/130/5 102/129/5 43/278/5
f 100/3/3 101/279/3 115/280/3
f 115/280/3 101/279/3 112/281/3
f 110/138/23 108/282/23 106/139/23
f 109/274/24 111/283/24 107/284/24
f 108/285/3 105/286/3 106/273/3
f 106/273/3 105/286/3 109/274/3
f 104/133/25 108/282/25 110/138/25
f 109/274/26 105/286/26 111/283/26
f 1/6/2 112/287/2 3/272/2
f 101/270/2 3/272/2 112/287/2
f 112/287/27 114/8/27 115/288/27
f 112/287/2 1/6/2 114/8/2
f 115/280/28 114/289/28 113/290/28
f 4/1/3 100/3/3 115/280/3
f 4/1/3 115/280/3 104/291/3
f 115/280/3 113/290/3 108/285/3
f 108/285/3 113/290/3 105/286/3
f 104/291/3 115/280/3 108/285/3
f 102/292/3 107/284/3 43/293/3
f 109/274/3 107/284/3 44/275/3
f 44/275/3 107/284/3 102/292/3
